<?xml version="1.0" encoding="UTF-8" standalone="no"?><!DOCTYPE svg PUBLIC "-//W3C//DTD SVG 1.1//EN" "http://www.w3.org/Graphics/SVG/1.1/DTD/svg11.dtd">
<svg version="1.1" viewBox="0 0 800 800" height="100%" xmlns="http://www.w3.org/2000/svg" width="100%" xmlns:vectornator="http://vectornator.io" xmlns:xlink="http://www.w3.org/1999/xlink" xml:space="preserve" style="fill-rule:nonzero;clip-rule:evenodd;stroke-linecap:round;stroke-linejoin:round;">
  <defs>
  <linearGradient id="Gradient" x1="0" x2="1" y1="0" y2="1">
          <stop offset="0%" stop-color="#00dbde"/>
          <stop offset="100%" stop-color="#fc00ff"/>
        </linearGradient>
  </defs>
<path d="M410.949+33.3202C494.353+36.9126+554.492+45.617+591.762+61.4452C621.344+74.0085+638.262+84.468+647.855+96.2264L585.449+131.695L563.949+71.2264L574.23+138.133L499.48+180.289L471.762+162.914L517.762+71.4452L488.137+109.445L431.637+53.0702L481.262+121.258L461.668+156.414L416.074+133.851L480.262+185.32L522.387+260.008L440.48+314.445L489.793+294.351L476.074+376.133L505.168+284.133L529.918+273.383L570.855+347.601L410.949+433.101C410.949+246.868+410.949+66.7986+410.949+33.3202ZM654.543+106.976C655.333+108.774+656.1+110.578+656.668+112.476C658.439+118.399+657.892+130.065+655.168+145.07C653.988+151.569+652.448+158.484+650.637+165.633C649.061+171.85+647.389+177.899+645.699+183.508C645.109+185.466+643.733+189.772+643.605+190.164C643.531+190.391+643.502+190.536+643.48+190.601L587.918+338.226L588.699+335.82L573.949+310.32L593.762+226.758L566.043+295.601L506.48+191.601L519.48+183.945L623.168+188.195L537.824+173.726L654.543+106.976ZM573.199+377.32L485.699+609.82C485.21+611.119+484.944+612.495+484.949+613.883L485.387+720.914C485.387+722.179+485.512+723.157+485.543+724.351L432.043+615.601L432.293+459.789L573.199+377.32ZM399.98+10.0077C393.523+9.77368+388.137+14.9213+388.137+21.3827C388.137+63.9839+388.137+776.955+388.137+778.445C388.137+784.745+393.243+789.851+399.543+789.851L498.949+789.851C499.614+789.851+500.264+789.779+500.918+789.664C501.739+789.519+502.862+789.265+504.199+788.851C506.37+788.18+508.551+787.257+510.668+786.039C517.537+782.087+522.179+775.705+522.355+767.133L522.418+767.133C522.423+766.997+522.414+766.892+522.418+766.758C522.418+766.725+522.418+766.697+522.418+766.664L522.387+766.664C522.628+758.447+520.488+752.894+515.824+747.289C515.562+746.974+514.306+745.507+514.199+745.383C513.675+744.769+513.314+744.32+512.98+743.883C509.879+739.826+508.199+734.038+508.199+720.883L507.762+615.914C509.203+612.082+665.059+197.929+665.105+197.789C665.236+197.396+665.474+196.697+665.793+195.695C666.316+194.05+666.887+192.145+667.512+190.07C669.293+184.155+671.098+177.824+672.762+171.258C674.693+163.634+676.325+156.217+677.605+149.164C680.935+130.818+681.644+116.317+678.543+105.945C670.31+78.4076+648.697+60.8426+600.668+40.4452C558.297+22.4507+492.37+13.3557+399.98+10.0077ZM389.387+33.3202C389.387+66.7987+389.387+246.868+389.387+433.101L229.512+347.601L270.449+273.383L295.199+284.133L324.262+376.133L310.543+294.351L359.887+314.445L277.98+260.008L320.074+185.32L384.262+133.851L338.668+156.414L319.105+121.258L368.699+53.0702L312.23+109.445L282.574+71.4452L328.574+162.914L300.855+180.289L226.105+138.133L236.418+71.2264L214.918+131.695L152.512+96.2264C162.115+84.4717+179.03+74.0053+208.605+61.4452C245.875+45.617+305.983+36.9126+389.387+33.3202ZM145.793+106.976L262.543+173.726L177.199+188.195L280.855+183.945L293.887+191.601L234.324+295.601L206.574+226.758L226.418+310.32L211.668+335.82L212.449+338.226L156.887+190.601C156.865+190.536+156.462+189.29+156.293+188.758C155.804+187.223+155.257+185.466+154.668+183.508C152.979+177.899+151.305+171.85+149.73+165.633C147.919+158.484+146.379+151.569+145.199+145.07C142.476+130.065+141.897+118.399+143.668+112.476C144.235+110.578+145.002+108.774+145.793+106.976ZM227.168+377.32L368.074+459.789L368.324+615.601L314.762+724.414C314.794+723.188+314.949+722.183+314.949+720.883L315.387+613.883C315.392+612.495+315.156+611.119+314.668+609.82L227.168+377.32ZM400.387+10.0077C307.996+13.3557+242.07+22.4507+199.699+40.4452C151.67+60.8426+130.057+78.4075+121.824+105.945C118.723+116.317+119.401+130.818+122.73+149.164C124.01+156.217+125.674+163.634+127.605+171.258C129.269+177.824+131.043+184.155+132.824+190.07C133.449+192.145+134.019+194.05+134.543+195.695C134.862+196.697+135.099+197.396+135.23+197.789C135.277+197.929+291.084+611.892+292.574+615.851L292.137+720.82C292.136+734.022+290.488+739.826+287.387+743.883C287.053+744.319+286.66+744.768+286.137+745.383C286.03+745.507+284.773+746.974+284.512+747.289C279.848+752.894+277.739+758.448+277.98+766.664L277.949+766.664C277.949+766.697+277.949+766.725+277.949+766.758C277.953+766.892+277.943+766.997+277.949+767.133L278.012+767.133C278.187+775.704+282.83+782.087+289.699+786.039C291.816+787.257+293.997+788.18+296.168+788.851C297.505+789.265+298.628+789.519+299.449+789.664C300.103+789.779+300.753+789.851+301.418+789.851L400.793+789.851C407.092+789.851+412.199+784.744+412.199+778.445C412.199+776.955+412.199+63.9839+412.199+21.3827C412.199+14.9214+406.844+9.77367+400.387+10.0077Z" opacity="1" fill="url(#Gradient)"/>
</svg>
